<svg xmlns="http://www.w3.org/2000/svg" xmlns:xlink="http://www.w3.org/1999/xlink" width="279.456" height="63.036" viewBox="0 0 279.456 63.036"><defs><style>.a{fill:url(#a);}.b{fill:url(#b);}.c{fill:url(#c);}.d{fill:url(#d);}.e{fill:url(#e);}.f{fill:url(#f);}.g{fill:url(#g);}.h{fill:url(#h);}.i{fill:url(#i);}</style><linearGradient id="a" y1="0.5" x2="1" y2="0.5" gradientUnits="objectBoundingBox"><stop offset="0" stop-color="#73f79e"/><stop offset="1" stop-color="#44a1f6"/></linearGradient><linearGradient id="b" x1="0" y1="0.505" x2="9.336" y2="0.505" xlink:href="#a"/><linearGradient id="c" x1="-1.109" y1="0.309" x2="8.383" y2="0.309" xlink:href="#a"/><linearGradient id="d" x1="-1.62" y1="0.313" x2="5.067" y2="0.313" xlink:href="#a"/><linearGradient id="e" x1="-3.889" y1="0.309" x2="5.604" y2="0.309" xlink:href="#a"/><linearGradient id="f" x1="-7.882" y1="0.315" x2="6.85" y2="0.315" xlink:href="#a"/><linearGradient id="g" x1="-7.32" y1="0.303" x2="4.62" y2="0.303" xlink:href="#a"/><linearGradient id="h" x1="-7.302" y1="0.309" x2="2.981" y2="0.309" xlink:href="#a"/><linearGradient id="i" x1="-7.626" y1="0.505" x2="1" y2="0.505" xlink:href="#a"/></defs><g transform="translate(-353.152 -149)"><path class="a" d="M580.428,235.095a2.682,2.682,0,0,1-2.682-2.682V174.741a2.682,2.682,0,0,1,5.363,0v57.673A2.682,2.682,0,0,1,580.428,235.095Zm42.708-2.682V174.741a2.682,2.682,0,1,0-5.363,0v57.673a2.682,2.682,0,1,0,5.363,0Zm-30.02-10.026V184.766a2.682,2.682,0,1,0-5.363,0v37.622a2.682,2.682,0,1,0,5.363,0Zm20.013,0V184.766a2.682,2.682,0,0,0-5.363,0v37.622a2.682,2.682,0,0,0,5.363,0Zm20.013,0V184.766a2.682,2.682,0,0,0-5.363,0v37.622a2.682,2.682,0,0,0,5.363,0Zm-60.039,0V184.766a2.682,2.682,0,1,0-5.363,0v37.622a2.682,2.682,0,1,0,5.363,0Zm30.02-13.262v-11.1a2.682,2.682,0,1,0-5.363,0v11.1a2.682,2.682,0,1,0,5.363,0Zm40.026,0v-11.1a2.682,2.682,0,1,0-5.363,0v11.1a2.682,2.682,0,1,0,5.363,0Zm-80.052,0v-11.1a2.682,2.682,0,1,0-5.363,0v11.1a2.682,2.682,0,1,0,5.363,0Z" transform="translate(-204.581 -23.059)"/><g transform="translate(466.509 167.797)"><path class="b" d="M393.846,473.081v8.774h-4.638V456.928h8.12a14.229,14.229,0,0,1,4.327.587,8.337,8.337,0,0,1,3.017,1.637,6.414,6.414,0,0,1,1.758,2.517,9.38,9.38,0,0,1-.034,6.525,6.886,6.886,0,0,1-1.81,2.594,8.412,8.412,0,0,1-3.017,1.69,13.428,13.428,0,0,1-4.241.6Zm0-3.621h3.482a6.994,6.994,0,0,0,2.224-.319,4.128,4.128,0,0,0,1.569-.914,3.74,3.74,0,0,0,.931-1.448,5.551,5.551,0,0,0,.31-1.9,5.038,5.038,0,0,0-.31-1.811,3.578,3.578,0,0,0-.931-1.379,4.144,4.144,0,0,0-1.569-.87,7.349,7.349,0,0,0-2.224-.3h-3.482Z" transform="translate(-389.209 -456.928)"/><path class="c" d="M479.072,486.022a9.7,9.7,0,0,1,3.594.638,7.751,7.751,0,0,1,2.75,1.81,8.02,8.02,0,0,1,1.758,2.862,11.851,11.851,0,0,1,0,7.567,8.2,8.2,0,0,1-1.758,2.879,7.636,7.636,0,0,1-2.75,1.827,10.463,10.463,0,0,1-7.2,0,7.7,7.7,0,0,1-2.766-1.827,8.222,8.222,0,0,1-1.776-2.879,11.693,11.693,0,0,1,0-7.567,8.046,8.046,0,0,1,1.776-2.862,7.811,7.811,0,0,1,2.766-1.81A9.764,9.764,0,0,1,479.072,486.022Zm0,14.946a3.745,3.745,0,0,0,3.267-1.482,7.433,7.433,0,0,0,1.06-4.345,7.518,7.518,0,0,0-1.06-4.361,3.729,3.729,0,0,0-3.267-1.5,3.78,3.78,0,0,0-3.31,1.508,7.48,7.48,0,0,0-1.068,4.352,7.4,7.4,0,0,0,1.068,4.336A3.8,3.8,0,0,0,479.072,500.968Z" transform="translate(-450.886 -479.057)"/><path class="d" d="M557.289,503.985V486.3h2.6a1.047,1.047,0,0,1,1.086.776l.275,1.31a10.068,10.068,0,0,1,.974-.948,6.219,6.219,0,0,1,1.086-.741,5.871,5.871,0,0,1,1.241-.492,5.536,5.536,0,0,1,1.457-.181,4.129,4.129,0,0,1,2.749.905,5.453,5.453,0,0,1,1.612,2.4,5.394,5.394,0,0,1,1.034-1.508,5.667,5.667,0,0,1,1.362-1.026,6.269,6.269,0,0,1,1.577-.586,7.567,7.567,0,0,1,1.681-.19,7.07,7.07,0,0,1,2.6.448,5,5,0,0,1,1.913,1.31,5.783,5.783,0,0,1,1.181,2.1,9.162,9.162,0,0,1,.406,2.845v11.257h-4.258V492.728a3.784,3.784,0,0,0-.742-2.543,2.721,2.721,0,0,0-2.172-.853,3.235,3.235,0,0,0-1.215.225,2.879,2.879,0,0,0-.982.646,2.945,2.945,0,0,0-.664,1.06,4.114,4.114,0,0,0-.242,1.466v11.257h-4.275V492.728a3.854,3.854,0,0,0-.715-2.586,2.669,2.669,0,0,0-2.111-.81,3.408,3.408,0,0,0-1.716.457,5.779,5.779,0,0,0-1.491,1.25v12.946Z" transform="translate(-517.054 -479.057)"/><path class="e" d="M682.22,486.022a9.7,9.7,0,0,1,3.595.638,7.75,7.75,0,0,1,2.75,1.81,8.021,8.021,0,0,1,1.759,2.862,11.851,11.851,0,0,1,0,7.567,8.2,8.2,0,0,1-1.759,2.879,7.635,7.635,0,0,1-2.75,1.827,10.463,10.463,0,0,1-7.2,0,7.694,7.694,0,0,1-2.766-1.827,8.222,8.222,0,0,1-1.776-2.879,11.689,11.689,0,0,1,0-7.567,8.045,8.045,0,0,1,1.776-2.862,7.811,7.811,0,0,1,2.766-1.81A9.765,9.765,0,0,1,682.22,486.022Zm0,14.946a3.745,3.745,0,0,0,3.267-1.482,7.435,7.435,0,0,0,1.06-4.345,7.52,7.52,0,0,0-1.06-4.361,3.729,3.729,0,0,0-3.267-1.5,3.779,3.779,0,0,0-3.31,1.508,7.478,7.478,0,0,0-1.069,4.352,7.394,7.394,0,0,0,1.069,4.336A3.8,3.8,0,0,0,682.22,500.968Z" transform="translate(-605.404 -479.057)"/><path class="f" d="M760.44,503.821V486.134h2.5a1.339,1.339,0,0,1,.914.242,1.385,1.385,0,0,1,.345.827l.259,2.138a8.394,8.394,0,0,1,2.224-2.586,4.681,4.681,0,0,1,2.861-.948,3.7,3.7,0,0,1,2.172.6l-.552,3.189a.663.663,0,0,1-.224.44.759.759,0,0,1-.465.129,2.883,2.883,0,0,1-.707-.12,4.75,4.75,0,0,0-1.19-.12,3.608,3.608,0,0,0-2.275.733,5.644,5.644,0,0,0-1.6,2.146v11.016Z" transform="translate(-671.574 -478.893)"/><path class="g" d="M828.506,488.933a2.385,2.385,0,0,1-.164.871,2.907,2.907,0,0,1-.388.715l-8.413,11.067h8.723v3.276h-13.67v-1.776a2.222,2.222,0,0,1,.138-.7,2.5,2.5,0,0,1,.431-.768l8.482-11.187h-8.551v-3.258h13.412Z" transform="translate(-712.765 -479.934)"/><path class="h" d="M890.424,486.022a8.6,8.6,0,0,1,3.077.535,6.732,6.732,0,0,1,2.422,1.56,7.131,7.131,0,0,1,1.586,2.517,9.5,9.5,0,0,1,.569,3.4,6.048,6.048,0,0,1-.044.8,1.265,1.265,0,0,1-.155.5.624.624,0,0,1-.3.259,1.288,1.288,0,0,1-.483.078h-10.93a6.089,6.089,0,0,0,1.466,4,4.565,4.565,0,0,0,3.379,1.276,5.83,5.83,0,0,0,1.784-.242,8.3,8.3,0,0,0,1.31-.534q.56-.293.983-.534a1.646,1.646,0,0,1,.818-.242.915.915,0,0,1,.448.1.986.986,0,0,1,.328.293l1.241,1.552a7.1,7.1,0,0,1-1.586,1.388,8.9,8.9,0,0,1-1.836.9,10.063,10.063,0,0,1-1.948.473,13.927,13.927,0,0,1-1.922.139,9.453,9.453,0,0,1-3.43-.612,7.677,7.677,0,0,1-2.759-1.811,8.492,8.492,0,0,1-1.844-2.965,11.48,11.48,0,0,1-.672-4.094,9.8,9.8,0,0,1,.586-3.405,8.194,8.194,0,0,1,1.681-2.775,7.92,7.92,0,0,1,2.672-1.871A8.81,8.81,0,0,1,890.424,486.022Zm.086,3.051a3.937,3.937,0,0,0-2.913,1.052,5.189,5.189,0,0,0-1.345,2.982h8a5.319,5.319,0,0,0-.224-1.56,3.605,3.605,0,0,0-.69-1.284,3.268,3.268,0,0,0-1.173-.87A4,4,0,0,0,890.51,489.073Z" transform="translate(-763.979 -479.057)"/><path class="i" d="M1021.89,456.928v1.707a2.508,2.508,0,0,1-.448,1.448l-12.791,18.066h12.929v3.707h-18.945v-1.827a1.85,1.85,0,0,1,.121-.664,2.769,2.769,0,0,1,.31-.595l12.826-18.152h-12.446v-3.69Z" transform="translate(-855.791 -456.928)"/></g></g></svg>